<?xml version="1.0" encoding="UTF-8"?>
<svg version="1.1" xmlns="http://www.w3.org/2000/svg" width="497" height="166">
<path d="M0 0 C7.10753947 6.49745025 10.76173175 14.72627885 11.2734375 24.26171875 C11.52741415 38.01985877 10.11281436 50.73149726 0.37109375 61.32421875 C-7.14440864 68.19794791 -15.34336205 69.64193217 -25.29296875 69.57421875 C-25.99562866 69.57321167 -26.69828857 69.57220459 -27.42224121 69.57116699 C-30.02890675 69.56596351 -32.63554889 69.55200237 -35.2421875 69.5390625 C-41.0790625 69.5184375 -46.9159375 69.4978125 -52.9296875 69.4765625 C-52.9296875 50.6665625 -52.9296875 31.8565625 -52.9296875 12.4765625 C-60.1896875 12.4765625 -67.4496875 12.4765625 -74.9296875 12.4765625 C-74.9296875 38.5465625 -74.9296875 64.6165625 -74.9296875 91.4765625 C-61.3790625 91.321875 -61.3790625 91.321875 -47.5546875 91.1640625 C-44.74275879 91.13916748 -41.93083008 91.11427246 -39.03369141 91.08862305 C-17.33202321 90.81849465 2.48954242 89.74688236 21.0703125 77.4765625 C21.7303125 77.4765625 22.3903125 77.4765625 23.0703125 77.4765625 C23.09715237 80.45578843 23.11707287 83.43477545 23.1328125 86.4140625 C23.14119141 87.26419922 23.14957031 88.11433594 23.15820312 88.99023438 C23.16142578 89.79912109 23.16464844 90.60800781 23.16796875 91.44140625 C23.17320557 92.190271 23.17844238 92.93913574 23.18383789 93.71069336 C23.0703125 95.4765625 23.0703125 95.4765625 22.0703125 96.4765625 C20.6431763 96.57426451 19.2112382 96.60287945 17.78076172 96.60354614 C16.85527527 96.60636597 15.92978882 96.60918579 14.97625732 96.61209106 C13.44113495 96.60905472 13.44113495 96.60905472 11.875 96.60595703 C10.8035675 96.60770935 9.73213501 96.60946167 8.62823486 96.61126709 C5.06724453 96.61568803 1.50630339 96.61274676 -2.0546875 96.609375 C-4.51708994 96.61004797 -6.97949232 96.61101794 -9.44189453 96.61227417 C-14.61035798 96.61375147 -19.77880418 96.61159555 -24.94726562 96.60693359 C-31.58909477 96.6012363 -38.23088352 96.60451513 -44.87271118 96.61050606 C-49.95971992 96.6141108 -55.046719 96.61297349 -60.13372803 96.61037827 C-62.5834758 96.60970875 -65.03322443 96.61053825 -67.48297119 96.61285782 C-70.9001296 96.61538292 -74.31722157 96.61154576 -77.734375 96.60595703 C-78.75778992 96.60798126 -79.78120483 96.61000549 -80.83563232 96.61209106 C-82.223862 96.60786133 -82.223862 96.60786133 -83.64013672 96.60354614 C-84.44909393 96.60316912 -85.25805115 96.60279209 -86.09152222 96.60240364 C-87.9296875 96.4765625 -87.9296875 96.4765625 -88.9296875 95.4765625 C-89.0250794 94.09780225 -89.05157372 92.71419334 -89.04994202 91.33213806 C-89.05131668 90.43886307 -89.05269135 89.54558807 -89.05410767 88.62524414 C-89.05051239 87.63766113 -89.04691711 86.65007812 -89.04321289 85.63256836 C-89.04335892 84.59854385 -89.04350494 83.56451935 -89.0436554 82.49916077 C-89.04295577 79.06322164 -89.03516108 75.62733597 -89.02734375 72.19140625 C-89.02547975 69.81628957 -89.02405576 67.4411725 -89.02305603 65.0660553 C-89.01922947 58.80080106 -89.009398 52.53556983 -88.99835205 46.27032471 C-88.9881409 39.8826936 -88.98355905 33.49505879 -88.97851562 27.10742188 C-88.96777586 14.56379224 -88.95088877 2.02017859 -88.9296875 -10.5234375 C-84.48599238 -10.85592451 -80.04187251 -11.18237153 -75.59765625 -11.5078125 C-74.35173706 -11.6011084 -73.10581787 -11.6944043 -71.82214355 -11.79052734 C-48.411741 -13.49421833 -19.55825687 -15.44072911 0 0 Z " fill="#232221" transform="translate(168.9296875,62.5234375)"/>
<path d="M0 0 C17.82 0 35.64 0 54 0 C54 30.36 54 60.72 54 92 C45.09 92 36.18 92 27 92 C27.33 88.37 27.66 84.74 28 81 C29.1346472 61.08811533 27.36348746 44.52503744 15.75 27.75 C11.89760856 23.89760856 7.54013769 20.98571766 3 18 C2.01 17.34 1.02 16.68 0 16 C0 10.72 0 5.44 0 0 Z " fill="#969799" transform="translate(178,25)"/>
<path d="M0 0 C35.97 0 71.94 0 109 0 C109 2.31 109 4.62 109 7 C79.96 7 50.92 7 21 7 C21 10.63 21 14.26 21 18 C27.6 18 34.2 18 41 18 C41.73316291 21.66581454 42.10380005 24.36699832 42 28 C40.25 27.70833333 38.5 27.41666667 36.75 27.125 C35.64398438 26.94195312 34.53796875 26.75890625 33.3984375 26.5703125 C31.31855141 26.22127415 29.24001363 25.86391429 27.1640625 25.4921875 C18.14854832 23.90121441 9.10145639 22.96530598 0 22 C0 14.74 0 7.48 0 0 Z " fill="#97989A" transform="translate(123,7)"/>
<path d="M0 0 C3.63 0 7.26 0 11 0 C14.78596296 5.04795061 14.48523112 7.92513008 14.4375 14 C14.45748047 14.90234375 14.47746094 15.8046875 14.49804688 16.734375 C14.49523166 20.54054187 14.40765007 23.23693358 12.59765625 26.625 C10 28 10 28 0 28 C0 18.76 0 9.52 0 0 Z " fill="#3A3938" transform="translate(201,128)"/>
<path d="M0 0 C1.65 0 3.3 0 5 0 C6.32 3.3 7.64 6.6 9 10 C9.33 6.7 9.66 3.4 10 0 C11.65 0 13.3 0 15 0 C15 9.24 15 18.48 15 28 C13.35 27.67 11.7 27.34 10 27 C8.10201876 23.81857013 7.20626918 20.52945426 6 17 C5.67 20.63 5.34 24.26 5 28 C3.35 27.67 1.7 27.34 0 27 C0 18.09 0 9.18 0 0 Z " fill="#4D4D4C" transform="translate(334,128)"/>
<path d="M0 0 C1.093125 0.00257812 2.18625 0.00515625 3.3125 0.0078125 C4.405625 0.00523438 5.49875 0.00265625 6.625 0 C9.3125 0.1328125 9.3125 0.1328125 10.3125 1.1328125 C10.45365161 3.80340101 10.35497107 6.45713488 10.3125 9.1328125 C8.6625 9.1328125 7.0125 9.1328125 5.3125 9.1328125 C5.3125 7.4828125 5.3125 5.8328125 5.3125 4.1328125 C3.9925 4.1328125 2.6725 4.1328125 1.3125 4.1328125 C1.3125 10.7328125 1.3125 17.3328125 1.3125 24.1328125 C2.6325 24.1328125 3.9525 24.1328125 5.3125 24.1328125 C5.3125 22.1528125 5.3125 20.1728125 5.3125 18.1328125 C6.9625 18.1328125 8.6125 18.1328125 10.3125 18.1328125 C10.33939216 19.61188142 10.35884621 21.09108733 10.375 22.5703125 C10.38660156 23.39402344 10.39820313 24.21773437 10.41015625 25.06640625 C10.3125 27.1328125 10.3125 27.1328125 9.3125 28.1328125 C7.31450428 28.23155066 5.31292842 28.26253049 3.3125 28.2578125 C2.219375 28.26039063 1.12625 28.26296875 0 28.265625 C-2.6875 28.1328125 -2.6875 28.1328125 -3.6875 27.1328125 C-3.78721786 25.21822968 -3.81830589 23.29998933 -3.8203125 21.3828125 C-3.82160156 20.2175 -3.82289063 19.0521875 -3.82421875 17.8515625 C-3.82035156 16.624375 -3.81648438 15.3971875 -3.8125 14.1328125 C-3.81636719 12.905625 -3.82023437 11.6784375 -3.82421875 10.4140625 C-3.82292969 9.24875 -3.82164062 8.0834375 -3.8203125 6.8828125 C-3.81918457 5.80515625 -3.81805664 4.7275 -3.81689453 3.6171875 C-3.63627757 0.1493419 -3.48781048 0.17236273 0 0 Z " fill="#434342" transform="translate(396.6875,127.8671875)"/>
<path d="M0 0 C1.093125 0.00257812 2.18625 0.00515625 3.3125 0.0078125 C4.405625 0.00523438 5.49875 0.00265625 6.625 0 C9.3125 0.1328125 9.3125 0.1328125 10.3125 1.1328125 C10.45365161 3.80340101 10.35497107 6.45713488 10.3125 9.1328125 C8.6625 9.1328125 7.0125 9.1328125 5.3125 9.1328125 C5.3125 7.4828125 5.3125 5.8328125 5.3125 4.1328125 C3.6625 4.1328125 2.0125 4.1328125 0.3125 4.1328125 C0.6425 4.7928125 0.9725 5.4528125 1.3125 6.1328125 C1.38444869 9.01651583 1.40541708 11.87520914 1.375 14.7578125 C1.37048828 15.55960938 1.36597656 16.36140625 1.36132812 17.1875 C1.34953168 19.16930256 1.33159605 21.15106683 1.3125 23.1328125 C2.6325 23.4628125 3.9525 23.7928125 5.3125 24.1328125 C5.3125 22.1528125 5.3125 20.1728125 5.3125 18.1328125 C6.9625 18.1328125 8.6125 18.1328125 10.3125 18.1328125 C10.4375 25.8828125 10.4375 25.8828125 9.3125 28.1328125 C7.33340602 28.15967803 5.35421029 28.17914625 3.375 28.1953125 C2.27285156 28.20691406 1.17070312 28.21851563 0.03515625 28.23046875 C-2.6875 28.1328125 -2.6875 28.1328125 -3.6875 27.1328125 C-3.78721786 25.21822968 -3.81830589 23.29998933 -3.8203125 21.3828125 C-3.82160156 20.2175 -3.82289063 19.0521875 -3.82421875 17.8515625 C-3.82035156 16.624375 -3.81648438 15.3971875 -3.8125 14.1328125 C-3.81636719 12.905625 -3.82023437 11.6784375 -3.82421875 10.4140625 C-3.82292969 9.24875 -3.82164062 8.0834375 -3.8203125 6.8828125 C-3.81918457 5.80515625 -3.81805664 4.7275 -3.81689453 3.6171875 C-3.63627757 0.1493419 -3.48781048 0.17236273 0 0 Z " fill="#444443" transform="translate(300.6875,127.8671875)"/>
<path d="M0 0 C1.65 0 3.3 0 5 0 C5.83802913 4.1032224 6.66961878 8.20772362 7.5 12.3125 C7.73847656 13.47974609 7.97695313 14.64699219 8.22265625 15.84960938 C8.44824219 16.96787109 8.67382812 18.08613281 8.90625 19.23828125 C9.11572266 20.26993408 9.32519531 21.30158691 9.54101562 22.36450195 C10 25 10 25 10 28 C8.35 28 6.7 28 5 28 C5 26.35 5 24.7 5 23 C3.35 23 1.7 23 0 23 C-0.33 24.65 -0.66 26.3 -1 28 C-2.32 28 -3.64 28 -5 28 C-4.56468553 21.75548891 -3.64775058 15.64713373 -2.5 9.5 C-2.36940186 8.79359375 -2.23880371 8.0871875 -2.10424805 7.359375 C-1.12832851 2.25665702 -1.12832851 2.25665702 0 0 Z " fill="#40403F" transform="translate(262,128)"/>
<path d="M0 0 C4.29 0 8.58 0 13 0 C13 2.97 13 5.94 13 9 C11.68 9 10.36 9 9 9 C9 7.35 9 5.7 9 4 C7.35 4 5.7 4 4 4 C4.9292851 8.33666379 6.07539178 10.22787249 9.625 12.6875 C12.20435346 14.68890704 12.91540801 15.5206454 13.4921875 18.7890625 C13.49940553 21.58244046 13.41413247 24.23754815 13 27 C12 28 12 28 9.53125 28.1328125 C8.03078125 28.12894531 8.03078125 28.12894531 6.5 28.125 C5.4996875 28.12757813 4.499375 28.13015625 3.46875 28.1328125 C1 28 1 28 0 27 C-0.07179964 25.48071962 -0.08392007 23.95832518 -0.0625 22.4375 C-0.05347656 21.61121094 -0.04445313 20.78492188 -0.03515625 19.93359375 C-0.02355469 19.29550781 -0.01195312 18.65742188 0 18 C1.32 18 2.64 18 4 18 C4 19.98 4 21.96 4 24 C5.65 24 7.3 24 9 24 C8.04586466 19.65338344 6.69818258 17.59188907 3.375 14.8125 C0.89048113 12.52859445 0.07721648 11.48837771 -0.45703125 8.109375 C-0.43967639 5.4020161 -0.23310525 2.69736081 0 0 Z " fill="#3D3C3B" transform="translate(281,128)"/>
<path d="M0 0 C3.96 0 7.92 0 12 0 C12 1.32 12 2.64 12 4 C9.69 4 7.38 4 5 4 C5 6.31 5 8.62 5 11 C6.65 11 8.3 11 10 11 C10.33 12.65 10.66 14.3 11 16 C9.02 16 7.04 16 5 16 C5 18.64 5 21.28 5 24 C6.98 23.67 8.96 23.34 11 23 C11.33 24.65 11.66 26.3 12 28 C8.04 28 4.08 28 0 28 C0 18.76 0 9.52 0 0 Z " fill="#4D4D4C" transform="translate(217,128)"/>
<path d="M0 0 C1.51400391 0.01740234 1.51400391 0.01740234 3.05859375 0.03515625 C4.07050781 0.04417969 5.08242188 0.05320312 6.125 0.0625 C7.29869141 0.07990234 7.29869141 0.07990234 8.49609375 0.09765625 C8.49609375 1.41765625 8.49609375 2.73765625 8.49609375 4.09765625 C6.18609375 4.09765625 3.87609375 4.09765625 1.49609375 4.09765625 C1.49609375 6.40765625 1.49609375 8.71765625 1.49609375 11.09765625 C3.47609375 11.09765625 5.45609375 11.09765625 7.49609375 11.09765625 C7.49609375 12.74765625 7.49609375 14.39765625 7.49609375 16.09765625 C5.51609375 16.09765625 3.53609375 16.09765625 1.49609375 16.09765625 C1.49609375 18.73765625 1.49609375 21.37765625 1.49609375 24.09765625 C3.80609375 24.09765625 6.11609375 24.09765625 8.49609375 24.09765625 C8.49609375 25.41765625 8.49609375 26.73765625 8.49609375 28.09765625 C4.86609375 28.09765625 1.23609375 28.09765625 -2.50390625 28.09765625 C-3.82804715 25.44937446 -3.63347667 23.43085513 -3.63671875 20.46875 C-3.63800781 19.35177734 -3.63929688 18.23480469 -3.640625 17.08398438 C-3.63675781 15.91287109 -3.63289063 14.74175781 -3.62890625 13.53515625 C-3.63277344 12.36017578 -3.63664062 11.18519531 -3.640625 9.97460938 C-3.63933594 8.85892578 -3.63804687 7.74324219 -3.63671875 6.59375 C-3.63559082 5.56435303 -3.63446289 4.53495605 -3.63330078 3.47436523 C-3.45454244 0.19094555 -3.2966301 0.12857372 0 0 Z " fill="#383837" transform="translate(323.50390625,127.90234375)"/>
<path d="M0 0 C3.96 0 7.92 0 12 0 C12 1.32 12 2.64 12 4 C9.69 4 7.38 4 5 4 C5 6.64 5 9.28 5 12 C6.65 11.67 8.3 11.34 10 11 C10.33 12.65 10.66 14.3 11 16 C9.02 16 7.04 16 5 16 C5 19.96 5 23.92 5 28 C3.35 28 1.7 28 0 28 C0 18.76 0 9.52 0 0 Z " fill="#4E4E4D" transform="translate(372,128)"/>
<path d="M0 0 C4.62 0 9.24 0 14 0 C14 1.32 14 2.64 14 4 C12.35 4 10.7 4 9 4 C9 11.92 9 19.84 9 28 C7.35 27.67 5.7 27.34 4 27 C4 19.41 4 11.82 4 4 C2.68 4 1.36 4 0 4 C0 2.68 0 1.36 0 0 Z " fill="#4D4D4C" transform="translate(350,128)"/>
<path d="M0 0 C4.29 0 8.58 0 13 0 C13 1.32 13 2.64 13 4 C11.68 4 10.36 4 9 4 C9 11.92 9 19.84 9 28 C7.35 28 5.7 28 4 28 C4 20.08 4 12.16 4 4 C2.68 4 1.36 4 0 4 C0 2.68 0 1.36 0 0 Z " fill="#4B4B4A" transform="translate(243,128)"/>
<path d="M0 0 C1.65 0 3.3 0 5 0 C5.33 7.59 5.66 15.18 6 23 C7.65 23.33 9.3 23.66 11 24 C11 25.32 11 26.64 11 28 C7.37 28 3.74 28 0 28 C0 18.76 0 9.52 0 0 Z " fill="#4F4F4E" transform="translate(231,128)"/>
<path d="M0 0 C1.65 0 3.3 0 5 0 C5 9.24 5 18.48 5 28 C3.35 28 1.7 28 0 28 C0 18.76 0 9.52 0 0 Z " fill="#525251" transform="translate(365,128)"/>
<path d="M0 0 C1.65 0 3.3 0 5 0 C5 9.24 5 18.48 5 28 C3.35 28 1.7 28 0 28 C0 18.76 0 9.52 0 0 Z " fill="#525251" transform="translate(313,128)"/>
<path d="M0 0 C1.32 0 2.64 0 4 0 C4 9.24 4 18.48 4 28 C2.68 28 1.36 28 0 28 C0 18.76 0 9.52 0 0 Z " fill="#292927" transform="translate(386,128)"/>
<path d="M0 0 C1.65 0 3.3 0 5 0 C5 6.6 5 13.2 5 20 C3.35 20 1.7 20 0 20 C0 13.4 0 6.8 0 0 Z " fill="#FBFBFB" transform="translate(205,132)"/>
<path d="M0 0 C1.65 0 3.3 0 5 0 C5.125 7.75 5.125 7.75 4 10 C0.04 10 -3.92 10 -8 10 C-7.34 9.67 -6.68 9.34 -6 9 C-4.86649466 6.98330173 -4.86649466 6.98330173 -4 5 C-2.68 5.33 -1.36 5.66 0 6 C0 4.02 0 2.04 0 0 Z " fill="#515150" transform="translate(306,146)"/>
<path d="M0 0 C1.97909398 -0.02686553 3.95828971 -0.04633375 5.9375 -0.0625 C7.03964844 -0.07410156 8.14179688 -0.08570312 9.27734375 -0.09765625 C12 0 12 0 13 1 C13.14115161 3.67058851 13.04247107 6.32432238 13 9 C11.35 9 9.7 9 8 9 C8 7.35 8 5.7 8 4 C6.68 4 5.36 4 4 4 C4 10.6 4 17.2 4 24 C3.67 24 3.34 24 3 24 C3 17.07 3 10.14 3 3 C4.98 2.67 6.96 2.34 9 2 C6.03 1.67 3.06 1.34 0 1 C0 0.67 0 0.34 0 0 Z " fill="#717271" transform="translate(394,128)"/>
<path d="M0 0 C0.99 0 1.98 0 3 0 C3 2.64 3 5.28 3 8 C0.03 8 -2.94 8 -6 8 C-5.67 7.34 -5.34 6.68 -5 6 C-3.35 6 -1.7 6 0 6 C0 4.02 0 2.04 0 0 Z " fill="#1A1A18" transform="translate(403,147)"/>
<path d="M0 0 C2.32590854 3.63423209 2.16265833 6.77088331 2 11 C0.68 11 -0.64 11 -2 11 C-1.85957123 9.35369672 -1.71250671 7.70795821 -1.5625 6.0625 C-1.48128906 5.14597656 -1.40007812 4.22945312 -1.31640625 3.28515625 C-1 1 -1 1 0 0 Z " fill="#CDCDCD" transform="translate(264,136)"/>
<path d="M0 0 C0.66 0.33 1.32 0.66 2 1 C2 3.31 2 5.62 2 8 C0.68 8 -0.64 8 -2 8 C-2 5.69 -2 3.38 -2 1 C-1.34 0.67 -0.68 0.34 0 0 Z " fill="#2D2D2B" transform="translate(292,129)"/>
<path d="M0 0 C1.32 0 2.64 0 4 0 C3.6875 3.375 3.6875 3.375 3 7 C2.01 7.66 1.02 8.32 0 9 C0 6.03 0 3.06 0 0 Z " fill="#363635" transform="translate(281,146)"/>
</svg>
